{
    "asset" : {
        "generator" : "Khronos glTF Blender I/O v1.7.33",
        "version" : "2.0"
    },
    "scene" : 0,
    "scenes" : [
        {
            "name" : "Scene",
            "nodes" : [
                0,
                1
            ]
        }
    ],
    "nodes" : [
        {
            "mesh" : 0,
            "name" : "donut",
            "translation" : [
                0,
                0.019220314919948578,
                0
            ]
        },
        {
            "mesh" : 1,
            "name" : "icing",
            "translation" : [
                0,
                0.019220314919948578,
                0
            ]
        }
    ],
    "materials" : [
        {
            "doubleSided" : true,
            "name" : "Material.003",
            "pbrMetallicRoughness" : {
                "baseColorTexture" : {
                    "index" : 0
                },
                "metallicFactor" : 0
            }
        },
        {
            "doubleSided" : true,
            "name" : "Icing",
            "pbrMetallicRoughness" : {
                "baseColorFactor" : [
                    0.8000000715255737,
                    0.20840668678283691,
                    0.4662308990955353,
                    1
                ],
                "metallicFactor" : 0,
                "roughnessFactor" : 0.27952757477760315
            }
        },
        {
            "doubleSided" : true,
            "name" : "Sprinkles",
            "pbrMetallicRoughness" : {
                "metallicFactor" : 0,
                "roughnessFactor" : 0.5
            }
        }
    ],
    "meshes" : [
        {
            "name" : "Torus",
            "primitives" : [
                {
                    "attributes" : {
                        "POSITION" : 0,
                        "NORMAL" : 1,
                        "TEXCOORD_0" : 2
                    },
                    "indices" : 3,
                    "material" : 0
                }
            ]
        },
        {
            "name" : "Torus.001",
            "primitives" : [
                {
                    "attributes" : {
                        "POSITION" : 4,
                        "NORMAL" : 5
                    },
                    "indices" : 6,
                    "material" : 1
                },
                {
                    "attributes" : {
                        "POSITION" : 7,
                        "NORMAL" : 8
                    },
                    "indices" : 9,
                    "material" : 2
                }
            ]
        }
    ],
    "textures" : [
        {
            "sampler" : 0,
            "source" : 0
        }
    ],
    "images" : [
        {
            "bufferView" : 4,
            "mimeType" : "image/png",
            "name" : "donut texture"
        }
    ],
    "accessors" : [
        {
            "bufferView" : 0,
            "componentType" : 5126,
            "count" : 2831,
            "max" : [
                0.040712255984544754,
                0.021040672436356544,
                0.04033135995268822
            ],
            "min" : [
                -0.04766659438610077,
                -0.01872451975941658,
                -0.04592334106564522
            ],
            "type" : "VEC3"
        },
        {
            "bufferView" : 1,
            "componentType" : 5126,
            "count" : 2831,
            "type" : "VEC3"
        },
        {
            "bufferView" : 2,
            "componentType" : 5126,
            "count" : 2831,
            "type" : "VEC2"
        },
        {
            "bufferView" : 3,
            "componentType" : 5123,
            "count" : 15360,
            "type" : "SCALAR"
        },
        {
            "bufferView" : 5,
            "componentType" : 5126,
            "count" : 11096,
            "max" : [
                0.043883729726076126,
                0.02557762898504734,
                0.04198363423347473
            ],
            "min" : [
                -0.05046429857611656,
                -0.0109441839158535,
                -0.047921519726514816
            ],
            "type" : "VEC3"
        },
        {
            "bufferView" : 6,
            "componentType" : 5126,
            "count" : 11096,
            "type" : "VEC3"
        },
        {
            "bufferView" : 7,
            "componentType" : 5123,
            "count" : 66576,
            "type" : "SCALAR"
        },
        {
            "bufferView" : 8,
            "componentType" : 5126,
            "count" : 16754,
            "max" : [
                0.03989982604980469,
                0.02670125477015972,
                0.04161659628152847
            ],
            "min" : [
                -0.049857888370752335,
                0.009438266046345234,
                -0.04641585052013397
            ],
            "type" : "VEC3"
        },
        {
            "bufferView" : 9,
            "componentType" : 5126,
            "count" : 16754,
            "type" : "VEC3"
        },
        {
            "bufferView" : 10,
            "componentType" : 5123,
            "count" : 99168,
            "type" : "SCALAR"
        }
    ],
    "bufferViews" : [
        {
            "buffer" : 0,
            "byteLength" : 33972,
            "byteOffset" : 0
        },
        {
            "buffer" : 0,
            "byteLength" : 33972,
            "byteOffset" : 33972
        },
        {
            "buffer" : 0,
            "byteLength" : 22648,
            "byteOffset" : 67944
        },
        {
            "buffer" : 0,
            "byteLength" : 30720,
            "byteOffset" : 90592
        },
        {
            "buffer" : 0,
            "byteLength" : 53579,
            "byteOffset" : 121312
        },
        {
            "buffer" : 0,
            "byteLength" : 133152,
            "byteOffset" : 174892
        },
        {
            "buffer" : 0,
            "byteLength" : 133152,
            "byteOffset" : 308044
        },
        {
            "buffer" : 0,
            "byteLength" : 133152,
            "byteOffset" : 441196
        },
        {
            "buffer" : 0,
            "byteLength" : 201048,
            "byteOffset" : 574348
        },
        {
            "buffer" : 0,
            "byteLength" : 201048,
            "byteOffset" : 775396
        },
        {
            "buffer" : 0,
            "byteLength" : 198336,
            "byteOffset" : 976444
        }
    ],
    "samplers" : [
        {
            "magFilter" : 9729,
            "minFilter" : 9987
        }
    ],
    "buffers" : [
        {
            "byteLength" : 1174780,
            "uri" : "data:application/octet-stream;base64,"
        }
    ]
}
